<?xml version="1.0" encoding="UTF-8"?><svg id="a" xmlns="http://www.w3.org/2000/svg" viewBox="0 0 302.95 275.74"><defs><style>.b{fill:#33251c;}.b,.c,.d,.e,.f,.g,.h,.i,.j,.k,.l,.m,.n,.o,.p,.q,.r,.s,.t,.u,.v,.w,.x,.y,.z,.aa,.ab,.ac,.ad,.ae,.af,.ag,.ah,.ai,.aj,.ak,.al,.am,.an,.ao,.ap,.aq,.ar,.as,.at,.au,.av,.aw,.ax,.ay,.az,.ba,.bb,.bc,.bd,.be,.bf,.bg,.bh,.bi,.bj{stroke-width:0px;}.c{fill:#fefefe;}.d{fill:#464139;}.e{fill:#8dc154;}.f{fill:#9cc9e4;}.g{fill:#282222;}.h{fill:#9bbd72;}.i{fill:#8dc053;}.j{fill:#cec7ba;}.k{fill:#35322d;}.l{fill:#91c252;}.m{fill:#8cc055;}.n{fill:#87bf5e;}.o{fill:#edc5aa;}.p{fill:#33322a;}.q{fill:#088445;}.r{fill:#90c251;}.s{fill:#4b443a;}.t{fill:#4b5656;}.u{fill:#454036;}.v{fill:#4f382b;}.w{fill:#3a7e61;}.x{fill:#91c251;}.y{fill:#3a342a;}.z{fill:#108248;}.aa{fill:#0a8445;}.ab{fill:#fff;}.ac{fill:#644e40;}.ad{fill:#3d2f27;}.ae{fill:#8bc060;}.af{fill:#37434d;}.ag{fill:#b2c0b6;}.ah{fill:#52382a;}.ai{fill:#0a8443;}.aj{fill:#0b8443;}.ak{fill:#8bbf5c;}.al{fill:#278248;}.am{fill:#91c150;}.an{fill:#cec5b6;}.ao{fill:#edc3ab;}.ap{fill:#2a854d;}.aq{fill:#2b2b2a;}.ar{fill:#86be5a;}.as{fill:#74543a;}.at{fill:#0e8448;}.au{fill:#3e8e5e;}.av{fill:#232d35;}.aw{fill:#0d8444;}.ax{fill:#fdfdfd;}.ay{fill:#90c152;}.az{fill:#1d1d1b;}.ba{fill:#098444;}.bb{fill:#f4c5a8;}.bc{fill:#c0d8c9;}.bd{fill:#9fc6e0;}.be{fill:#8cc057;}.bf{fill:#3a2c23;}.bg{fill:#8c542e;}.bh{fill:#95bf79;}.bi{fill:#d0c9bc;}.bj{fill:#2b3134;}</style></defs><path class="ab" d="m147.87,8.48c5.26,0,10.56.48,15.81.74,8.82.43,17.62,1.06,26.45,1.06,1.48,0,2.97-.02,4.45-.06.42-.01.84-.02,1.26-.02,4.35,0,8.64.6,12.85,1.75,2.67,1.08,5.68,1.5,7.59,4,2.54,1.56,5.09,3.12,7.63,4.68,2.56,1.87,6.27,2.2,7.63,5.68,4.44,4.24,8.14,9.06,11.33,14.29,1.77,1.61,2.69,3.81,3.97,5.76,9.75,7.84,19.7,15.38,28.66,24.2,9.69,9.53,15.05,20.31,14.6,34.25-.29,8.89-.38,17.75,2.67,26.74,3.01,8.86-.25,18.39-1.82,28.99-4.02-6.88-3.96-13.78-7.74-19.08-2.14-3.24-7.07-4.1-7.53-8.78,0-.18.03-.36.04-.54-1.35-1.27-2.7-2.53-4.05-3.8,0,0,0,0,0,0,0,0,0,0,0,0-.36-.32-.73-.65-1.09-.97-4.36-3.6-8.98-6.81-14.04-9.36-1.07-.53-2.14-1.07-3.21-1.6,0,0,0,0,0,0-5.23-1.19-10.45-2.45-15.84-2.6,0,0,.02-.28.03-.38-.26-.01-.51-.03-.77-.03-.16,0-.31,0-.46.03-.44-.14-.89-.19-1.35-.19-.93,0-1.89.21-2.84.34,18.35,1.03,33.35,8.93,45.21,23.34.93,1.14,1.61,2.33,1.93,3.75,10.51,22.11,11.27,44.21-.19,66.25-1.05,2.01-1.64,3.72-.95,6.21,1.96,7.14-3.21,13.32-10.24,13.32-.73,0-1.48-.07-2.25-.21-.99-.18-1.92-.38-2.83-.38-.99,0-1.97.23-3,.98-10.02,7.27-20.36,10.51-30.94,10.51-8.76,0-17.69-2.22-26.74-6.21-8.09-1.45-12.86-7.61-17.99-13.06-2.42-2.57-4.56-5.45-6.27-8.59,1.07,2.86,3.6,5.16,4.07,8.26,5.81,4.89,11.12,10.39,17.49,14.61.07-.04.14-.08.21-.13.23-.05.46-.1.69-.15,5.51,4.25,12.25,5.45,18.65,7.51,4.86.03,9.75.52,14.62.52,4.6,0,9.17-.44,13.68-2.13.42-.16.88-.35,1.32-.35.32,0,.63.1.9.4.81.89.22,1.8-.3,2.56-2.34,3.33-5.32,5.94-9.24,7.13-5.31,1.6-10.64,3.2-16.06,4.33-10.64,2.21-20.88,5.36-30.06,11.35-3.99,2.6-8.43,3.86-13.07,3.86-.32,0-.64,0-.96-.02-29.79-1.1-59.28-3.49-85.56-19.88-6.93-4.32-12.42-10.29-18.78-15.25-8.23-6.62-16.33-13.39-24.41-20.2-4.07-3.22-8.28-6.29-11.44-10.51,1.76-5.06,6.69-6.15,10.63-8.47.48-.1.93-.15,1.35-.15.63,0,1.2.11,1.72.3,2.22-.69,4.44-1.37,6.65-2.06.05-.05.1-.09.15-.13,3.54-4.61,8.61-5.01,13.82-5.01.07,0,.14,0,.21,0,.21.2.39.41.54.61.34-.09.67-.14,1-.14.94,0,1.83.35,2.69.88.25.13.49.28.73.43-.07-.07-.13-.14-.2-.21-.82-.79-1.06-2.05-2.14-2.62-.58-.8-1.72-.85-2.67-1.16-8.08.18-15.43,3.42-22.81,6.5-1.76.73-3.43,1.68-5.14,2.55.06.35.03.72-.19,1.09-1.77,1.95-2.86,2.89-3.85,2.89-.9,0-1.72-.79-2.91-2.32.08-.9.22-1.78.39-2.64-.2.68-.41,1.36-.61,2.04-1.25.83-.34,2.39-1.28,3.53-3.26-2.13-5.15-5.6-7.95-8.15h0s-.05-.08-.05-.08c-3.34-2.49-3.42-6.72-4.33-10.06-1.43-5.23-2.27-10.87-1.36-16.47.6-.36,1.2-.71,1.8-1.07,4.68.77,9.99.21,12.37,5.85,1.12-.29,2.15-.44,3.1-.44,3.22,0,5.53,1.69,7.22,5.24.95-1.07.9-2.11-.56-3.05-6.53-4.22-13.05-8.41-21.15-9.03-4.7-.36-5.24-1.33-3.86-6.15,1.07-1.68,2.51-3,4.05-4.21-1.3-.4-2.14-1.2-1.8-3.18.39-2.32.58-4.69.74-7.04.15-2.2.9-3.28,2.26-3.28.63,0,1.39.23,2.28.68.55.33,1.15.48,1.76.64.63.17,1.2.35,1.71.55-.95-.43-1.91-.85-2.82-1.35-7.76-4.49-13.81-11.02-20.23-17.08-1.26-1.18-2.38-2.71-1.63-4.64.81-2.09,2.77-2.46,4.7-2.58,1.69-.1,3.38-.13,5.08-.13,1.5,0,3,.02,4.49.02,3.43,0,6.85-.1,10.25-.74.13,0,.26,0,.38,0,1.6,0,3.16-.15,4.66-.95,1.88-1,2.83-2.06,2.23-4.48-.83-3.32-1.84-6.55-3.16-9.64.57,1.7.7,3.7,1.41,5.24,1.01,2.2,2.93,5.07.58,7.45-2.19,2.21-5.87.92-8.4,2.73-.3.02-.59.03-.85.03-2.44,0-3.46-.91-2.22-4.06,1.92-4.88,3.43-9.92,5.11-14.89,2.02.22,3.13,1.08,3.81,2.23-.83-1.79-1.78-3.53-2.89-5.21-5-6.27-12.09-9.88-18.37-14.54-1.35-1-3.16-1.56-3.51-3.55-.43-.88-1.14-1.68-.87-2.79.31-.7.84-.99,1.54-.99.07,0,.15,0,.23,0,5.84-1.22,11.67-2.44,17.51-3.66.06-.25.15-.39.26-.39.09,0,.2.09.33.27,5.4.57,10.8,1.14,16.21,1.71.14-.09.27-.14.39-.14.18,0,.34.1.49.31,2.86.91,5.64,2.26,8.64,2.26.93,0,1.87-.13,2.85-.44-.4-.62.59-2.07-.67-2.07-.08,0-.16,0-.25.02-.51.06-1.01.12-1.47.12-1.11,0-1.99-.35-2.13-1.86-.14-1.5,1.18-2.7,2.5-3.17.3-.11.55-.15.75-.15,1.53,0,.85,2.55,2.14,2.95.23-8.12.31-16.22-3.58-23.72-3.41-3.49-5.68-7.84-8.73-11.6-.81-.99-.98-2.31-.43-3.59.9-1.53,2.27-1.68,3.67-1.68.34,0,.68,0,1.02,0,.14,0,.28,0,.42,0,.57-.02,1.13-.03,1.68-.03,17.35,0,30.95,8.29,42.92,20.19,1.01,1.01,1.86,2.17,2.98,3.07.48.39.86.54,1.18.54.58,0,.92-.53,1.24-1.11-3.32-.83-4.73-4.13-6.94-6.4,0,0,0,0,0,0,0,0,0,0,0,0-1.85-1.58-3.7-3.17-5.54-4.76,0,0,0,0,0,0-3.51-.84-5.85-3.59-8.75-5.42-1.7-1.07-1.41-2.43-.04-3.46,2.14-1.6,4.43-3,6.65-4.49.15.04.3.05.44.05.93,0,1.61-.72,2.43-1.04,1.77-.3,3.14-.5,4.24-.5,1.25,0,2.17.25,2.97.9-.3-1.21-.28-2.51.36-3.98.55-.1,1.09-.15,1.62-.15,3.77,0,7.03,2.34,10.7,2.81,8.98,1.39,14.6,7.54,19.84,14.15,4.06,5.13,6.32,11.25,8.7,17.19,1.51-.28,1.48-1.46,2.02-2.18.08-.15.15-.31.23-.47-2.95-1.52-3.01-4.91-4.13-7.62-.9-1.62-1.79-3.23-2.69-4.85,0,0,0,0,0,0,0,0,0,0,0,0-1.92-2.3-3.84-4.6-5.76-6.91,0,0,0,0,0,0,0,0,0,0,0,0-2.27-2.01-4.54-4.03-6.81-6.04-.69-.05-1.39-.13-2.11-.28-2.34-1.39-6.45-1.21-5.16-5.81.12.02.24.03.35.03.91,0,1.58-.62,2.31-1.08,2.28-2.81,5.88-1.53,8.66-2.81,6.77-3.56,13.84-4.45,20.99-4.45m-43.08,27.5c.29-2.95-1.13-5.42-2.38-7.99-.12.21-.24.42-.37.62.92,2.46,1.84,4.91,2.76,7.37m41.55.32c.28-.05.54-.07.78-.07,2.31,0,3.41,2.09,4.37,3.88,3.39,6.3,6.16,12.93,7.09,20.04.65,4.99,1.1,10.06,1.11,15.13.01,4.99.02,6.55,2.34,6.55.35,0,.76-.04,1.22-.1-3.26-.77-3.63-2.71-3.55-8.49.08-5.88-.22-11.73-1.53-17.49-.39-1.7-.83-3.4-.42-5.17.26-.31.52-.56.78-.79-1.58-2.42-2.72-5.03-3.29-7.88-2.25-.46-3.19-2.78-4.78-4.21-.86-.77-1.66-2.18-2.72-2.18-.42,0-.87.22-1.39.78m30.01,41.05c.26-.04.51-.06.73-.06,2.15,0,2.78,1.72,2.21,5.48-1.52,10.04-4.15,19.79-7.9,29.24-.55,1.39-1.86,3.05-.36,4.34.61.53,1.37.72,2.18.72.75,0,1.55-.16,2.34-.34,1.14-.27,2.33-.72,3.52-.72.8,0,1.6.21,2.38.81,1.31,2.04,1.43,4.01-.39,5.84-.22.1-.44.17-.66.21.54.54.79,1.21.86,1.96-.46,4.02-1.83,7.84-4.12,11.05-4.92,6.93-7.53,15.26-13.91,21.4-3.09,2.98-2.25,8.07-2.47,12.31-.6,11.61-4.27,21.77-13.59,29.3-5.4,4.36-11.59,7.14-18.27,8.89-3.75.71-7.38,1.07-10.89,1.07-.57,0-1.15,0-1.71-.03,1.1.06,2.17.25,3.19.76.87.17,1.73.39,2.59.7-.19.1-.39.19-.58.29.22-.05.42-.12.58-.29.43.1.86.14,1.28.14,2.15,0,4.14-1.07,6.25-1.27,0,0,0,0,0,0,1.03-1.58,2.39-1.87,3.83-1.87.93-.32,1.89-.58,2.81-.92.47-.1.94-.15,1.41-.15.2,0,.4,0,.6.02.1-1.53,1.69-2.02,2.87-2.62,14.33-7.26,19.67-19.71,20.29-34.91.14-3.47-.11-7,1.85-10.11,1-1.58,1.98-2.36,3.04-2.36.67,0,1.37.31,2.13.92,1.16-2.45,2.69-4.67,4.32-6.82.09-.08.16-.17.25-.25-1.37-2.52.65-4.6,1.92-6.6,2.87-4.52,6.44-8.64,7.23-14.2,1.71-4.35,3.53-8.68,1.84-13.5-.21.08-.38.12-.53.12-.46,0-.59-.38-.53-1-.48-.6-.97-.8-1.45-.8-.97,0-1.95.81-2.92.81-.08,0-.17,0-.25-.02,0,0,0,0,0,0,0,0,0,0,0,0-.91.42-1.87,1.05-2.81,1.05-.5,0-1-.18-1.49-.65-1.07-1.04-.14-2.41.21-3.54,2.28-7.46,4.62-14.89,6.95-22.33-.21-2.46.53-4.77,1.01-7.13-.09-.07-.18-.13-.27-.21-.31-.34-.57-.73-.76-1.15-1.25-2.81-2.11-4.15-3.3-4.15-.45,0-.94.19-1.51.56m52.04,36.11c.23,0,.45,0,.68,0,.17,0,.34.02.51.02-.62-.2-1.21-.57-1.77-1.22-.03.12-.06.24-.1.37-.66.37-1.35.63-2.05.81.91.01,1.82.03,2.72.03m-192.09,29.66c.86-.54,1.68-1.18,2.39-2.1-1.03-1-2.22-1.7-3.44-2.3,1.85,1.09,2.19,2.52,1.05,4.4m7.41,36.72c-.19,0-.39-.02-.6-.06-.67,2.24-1.34,4.48-2.01,6.72.86-2.11,1.93-4.14,3.18-6.11.17-.26.32-.53.47-.8-.29.16-.63.25-1.03.25m130.81,20.69c-1.01-1.78-2.56-3.21-5.04-4.16-1.59-.61-2.84-1.66-3.81-2.97.89,1.48,2.24,2.61,3.77,3.26,2.26.96,3.86,2.28,5.07,3.86m-61.16,8.28c.63,0,1.26-.02,1.89-.02.13,0,.26,0,.39,0-2.41-.11-4.76-.41-7.04-.88.25.07.5.15.76.22.44.15.88.3,1.32.45.87.19,1.77.23,2.68.23M147.87,4.66c-9.25,0-16.24,1.49-22.64,4.83-.49.2-1.3.28-2.15.36-2.03.19-5.03.48-7.39,3-.02.01-.04.03-.06.04-.04.03-.09.06-.13.09-1.66.03-3.15,1.14-3.61,2.79,0,.01,0,.03-.01.04-1.18-.16-2.47-.64-3.83-1.15-2.12-.79-4.52-1.69-7.31-1.69-.78,0-1.56.07-2.32.21-1.24.23-2.28,1.06-2.79,2.22-.12.27-.22.54-.32.81-1.23.04-2.63.24-4.4.54-.26.04-.52.12-.77.21-.58.23-1.05.51-1.4.72-.02,0-.05,0-.07,0-.75,0-1.49.22-2.12.64-.65.43-1.31.86-1.96,1.29-1.6,1.04-3.26,2.12-4.86,3.32-.65.49-1.19,1.03-1.61,1.62-7.4-3.4-15.03-5.03-23.15-5.03-.6,0-1.2,0-1.8.03-.1,0-.2,0-.31,0-.15,0-.31,0-.46,0-.19,0-.37,0-.56,0-1.33,0-4.86,0-6.96,3.55-.08.14-.15.28-.22.43-1.12,2.58-.75,5.39.97,7.51,1.15,1.41,2.19,2.93,3.29,4.55,1.58,2.31,3.21,4.69,5.25,6.87,2.25,4.58,2.89,9.46,2.99,14.97-.14.04-.28.08-.42.13-2.78.98-4.69,3.25-5.01,5.79-.42-.15-.84-.3-1.27-.45-.71-.48-1.54-.74-2.41-.74-.27,0-.53.03-.8.07l-14.39-1.52c-.68-.33-1.31-.4-1.74-.4-.72,0-1.56.21-2.3.73l-15.83,3.31c-2.19.04-4.02,1.26-4.9,3.27-.09.2-.16.4-.21.61-.58,2.35.41,4.09.94,5.03,0,.01.02.03.03.04.75,2.72,2.82,3.99,4.1,4.77.28.17.55.34.74.48,1.84,1.37,3.74,2.64,5.58,3.88,4.01,2.69,7.83,5.25,10.88,8.59-.14.24-.27.49-.36.77-.51,1.5-1,3.01-1.49,4.52-1.1,3.38-2.25,6.88-3.55,10.19-.16.4-.44,1.12-.62,2-.23,0-.46,0-.7,0-.74,0-1.48,0-2.22,0-.76,0-1.51,0-2.27,0-1.45,0-3.36.02-5.31.13-1.54.09-6.22.38-8.02,5-.83,2.13-1.05,5.38,2.57,8.8,1.18,1.11,2.35,2.24,3.51,3.37,3.53,3.41,7.13,6.9,11.15,10-.42.89-.72,2.02-.82,3.44-.15,2.17-.33,4.48-.7,6.67-.22,1.3-.15,2.49.19,3.53-.66.72-1.31,1.52-1.89,2.44-.2.31-.35.65-.45,1.01-.79,2.77-1.42,5.67.24,8.06.23.33.49.63.77.89,0,.04-.02.08-.02.13-.89,5.41-.41,11.33,1.44,18.1.17.62.32,1.32.47,2.07.61,2.93,1.43,6.91,4.85,9.71.06.06.11.11.17.17.94.85,1.81,1.9,2.73,3.01,1.54,1.84,3.28,3.93,5.7,5.52.08.05.17.1.25.15-.21,1.05.04,2.15.69,3.02,3.1,4.15,6.99,7.2,10.76,10.14.44.35.88.69,1.32,1.04,7.16,6.04,15.66,13.17,24.43,20.22.01.01.03.02.04.04,2.31,1.8,4.48,3.73,6.78,5.76,3.81,3.37,7.74,6.86,12.33,9.72,27.12,16.91,56.84,19.33,87.44,20.46.37.01.73.02,1.1.02,5.5,0,10.59-1.51,15.15-4.48,7.52-4.91,16.39-8.24,28.76-10.82,5.6-1.17,11.08-2.82,16.39-4.41,4.41-1.33,8.2-4.22,11.26-8.59,2.38-3.4,1.24-5.84.19-7.1,3.26-1.58,6.45-3.5,9.55-5.75.3-.22.47-.26.77-.26.44,0,1.04.11,1.74.24l.41.08c.98.18,1.97.27,2.94.27,4.67,0,8.91-2.05,11.63-5.62,2.68-3.51,3.51-8.07,2.29-12.52-.32-1.16-.19-1.8.66-3.44,7.46-14.34,10.15-29.19,8.05-44.36.16.02.31.03.47.03.24,0,.48-.02.73-.07,1.59-.31,2.81-1.58,3.05-3.19.36-2.42.82-4.82,1.26-7.15,1.55-8.17,3.02-15.9.4-23.62-2.78-8.19-2.77-16.34-2.47-25.39.45-14.09-4.69-26.22-15.74-37.09-7.48-7.36-15.7-13.9-23.65-20.23-1.6-1.27-3.2-2.55-4.8-3.83-.22-.35-.43-.72-.65-1.11-.83-1.44-1.77-3.05-3.2-4.49-3.37-5.46-7.02-10.09-11.14-14.12-1.58-3.14-4.36-4.43-6.43-5.39-.82-.38-1.59-.74-2.13-1.13-.08-.06-.17-.12-.25-.17l-4.9-3-2.2-1.35c-2.11-2.37-4.78-3.27-6.96-4-.62-.21-1.2-.4-1.73-.62-.14-.06-.28-.1-.42-.14-4.58-1.25-9.24-1.89-13.86-1.89-.45,0-.91,0-1.36.02-1.39.04-2.86.06-4.35.06-6.57,0-13.28-.36-19.78-.71-2.16-.12-4.33-.23-6.49-.34-1.65-.08-3.35-.19-5-.29-3.59-.22-7.3-.45-11-.45h0Z"/><path class="aw" d="m246.84,46.36c9.75,7.84,19.7,15.38,28.66,24.2,9.69,9.53,15.05,20.31,14.6,34.25-.29,8.89-.38,17.75,2.67,26.74,3.01,8.86-.25,18.39-1.82,28.99-4.02-6.88-3.96-13.78-7.74-19.08-2.14-3.24-7.07-4.1-7.53-8.78.02-1.3.38-2.55.99-3.64,2.2-3.91,2.18-7.84.39-11.87-1.84-4.13-2.04-7.93,2.06-11.03,1.62-1.22,1.58-3.78,3.22-4.91.93.16.11-.89.38-.31.11.23-.03.29-.42.2-4.6-1.12-8.09-4.88-8.14-9.76-.05-4.31-1.6-7.52-4.62-10.47-3.41-3.33-6.18-7.23-8.19-11.61-.6-1.3-1.28-2.56-2.2-3.66-1.03-1.23-2.27-2.77-3.95-1.75-2.18,1.31-.26,2.75.47,3.96.99,1.63,2.1,3.2,2.53,5.09.32,1.42.51,3.04-1.02,3.8-1.31.66-2.4-.41-3.31-1.3-1.64-1.6-2.56-3.67-3.19-5.78-2.14-7.15-5.91-12.93-12.79-16.37-1.43-.72-3.01-1.95-2.9-3.54.32-4.35-2.55-6.14-5.58-7.99-1.25-.77-2.24-1.84-2.46-3.35-1.25-8.52-9.03-9.71-14.8-13.1-1.28-.75-2.17.31-2.8,1.69-2.39,5.22-6.55,5.68-10.44,1.32-1.41-1.58-2.08-3.53-2.88-5.43-2.02-4.81-3.76-5.82-8.86-4.47-3.83,1.01-7.17.4-10.44-1.65-3.29-2.07-6.7-2.9-10.24-.5-.39.26-.89.54-1.32.5-7.11-.66-14.13,2.15-21.16.85-3.9-.72-7.14-.51-10.28,1.9-3.84,2.95-8.17,4.11-13,3.13-2.34-1.39-6.45-1.21-5.16-5.81,1.1.19,1.84-.53,2.66-1.05,2.28-2.81,5.88-1.53,8.66-2.81,11.76-6.18,24.41-4.32,36.79-3.72,10.3.5,20.58,1.27,30.9,1,4.78-.13,9.49.47,14.11,1.73,2.67,1.08,5.68,1.5,7.59,4,2.54,1.56,5.09,3.12,7.63,4.68,2.56,1.87,6.27,2.2,7.63,5.68,4.44,4.24,8.14,9.06,11.33,14.29,1.77,1.61,2.69,3.81,3.97,5.76Z"/><path class="av" d="m31.48,64.4c5.4.57,10.8,1.14,16.21,1.71.35-.23.64-.17.88.17,3.74,1.19,7.36,3.14,11.49,1.82,1.2-1.2-.25-2.95.87-4.16.23-8.12.31-16.22-3.58-23.72-3.41-3.49-5.68-7.84-8.73-11.6-.81-.99-.98-2.31-.43-3.59,1.21-2.05,3.25-1.62,5.11-1.68,18.16-.55,32.25,7.89,44.61,20.16,1.01,1.01,1.86,2.17,2.98,3.07,1.69,1.35,2.14-.12,2.75-1.19.9-2.71.41-5.59.97-8.34.89-3.71-1.08-6.62-2.53-9.75-1.52-3.27-4.83-6.12-2.96-10.38,4.48-.84,8.13,2.12,12.31,2.66,8.98,1.39,14.6,7.54,19.84,14.15,4.06,5.13,6.32,11.25,8.7,17.19,1.51-.28,1.48-1.46,2.02-2.18.77-1.42,1.25-2.94,1.61-4.5,1.14-2.48-.02-5.58,2.09-7.79,3.33-1.02,4.65,1.53,5.79,3.65,3.39,6.3,6.16,12.93,7.09,20.04.65,4.99,1.1,10.06,1.11,15.13q.02,7.26,7.15,5.77c2.31-.56,4.52-1.37,6.48-2.78,5.13-2.11,6.8-.93,5.98,4.51-1.52,10.04-4.15,19.79-7.9,29.24-.55,1.39-1.86,3.05-.36,4.34,1.18,1.02,2.87.76,4.52.37,1.9-.45,3.96-1.42,5.9.09,1.31,2.04,1.43,4.01-.39,5.84-1.03.49-2.03.19-3.03-.12-2.89-1.25-5.98-.17-8.95-.8-5.47-1.15-6.91-3.33-4.5-8.36,3.68-7.66,5.74-15.79,7.94-23.91.81-3,.24-4.32-3.15-3.08-2.85,1.04-5.83,1.53-8.89,1.38-4.7-.23-6.3-1.67-6.56-6.33-.26-4.76,0-9.53-.11-14.29-.18-6.87-2.35-13.22-4.9-20.45-2.21,3.58-3.09,6.63-4.5,9.42-1.14,2.25-2.21,5.05-5.26,4.76-2.67-.25-2.98-3.07-3.59-5.11-2.8-9.4-6.55-18.16-14.2-24.85-4.17-3.64-8.82-6.1-15.1-8.15,6.48,9.19,5.29,18.04,1.43,26.77-2.85,6.43-5.85,6.76-10.45,1.52-7.64-8.7-16.23-16.08-27.35-20.02-4.2-1.49-8.48-2.52-12.98-2.52-.78,1.84.55,2.84,1.27,3.93,4.38,6.73,6.42,14.09,6.3,22.09-.06,3.97.2,7.95-.15,11.9-.54,6.13-2.99,7.9-8.92,6-9.27-2.97-18.76-2.94-28.29-2.62-2.01.07-4.12.19-6.05,1.85,2.44,3.05,5.76,4.91,8.84,6.94,9.7,6.42,14.12,16.04,16.52,26.85,1.09,4.92-.21,6.87-4.75,9.05-7.24,3.48-15.11,3.2-23.54,4.06,7.01,6.19,12.84,13.02,21.35,16.5,1.91.78,3.83,1.54,5.61,2.61,1.51.91,3.13,1.86,3.07,3.9-.07,2.11-1.82,2.82-3.46,3.47-3.86,1.52-7.58,3.28-10.89,5.81-1.24.95-3.17,1.82-3.03,3.42.16,1.88,2.44,1.71,3.85,2.08,6.27,1.65,11.65,5,16.86,8.65,4.52,3.17,5.08,5.6,1.96,9.95-3.18,4.43-5.29,9.4-7.93,14.09-1.29,1.68,1.32,3.09.35,4.76-3.39,3.72-4.26,3.79-6.76.57.45-5.13,2.41-9.69,5.14-14,.92-1.46,1.64-3.05,2.1-4.74.39-1.13.96-2.16,1.67-3.12,1.33-1.21,1.46-2.39-.17-3.44-6.53-4.22-13.05-8.41-21.15-9.03-4.7-.36-5.24-1.33-3.86-6.15,1.26-1.96,2.99-3.45,4.84-4.82,2.14-1.54,4.01-3.45,6.36-4.71,1.61-.89,3.31-1.67,4.63-3.36-2.21-2.14-5.1-2.92-7.65-4.3-7.76-4.49-13.81-11.02-20.23-17.08-1.26-1.18-2.38-2.71-1.63-4.64.81-2.09,2.77-2.46,4.7-2.58,6.6-.4,13.26.4,19.82-.85,1.74.02,3.42-.08,5.05-.95,1.88-1,2.83-2.06,2.23-4.48-1.43-5.72-3.34-11.18-6.63-16.11-5-6.27-12.09-9.88-18.37-14.54-1.35-1-3.16-1.56-3.51-3.55-.43-.88-1.14-1.68-.87-2.79.34-.77.96-1.05,1.76-.98,5.84-1.22,11.67-2.44,17.51-3.66.12-.46.31-.52.59-.11Z"/><path class="at" d="m90.82,34.87c-3.51-.84-5.85-3.59-8.76-5.42-1.7-1.07-1.41-2.43-.04-3.46,2.14-1.6,4.43-3,6.65-4.49,1.17.28,1.93-.61,2.87-.99,7.03-1.19,7.64-.8,11.06,7.13-2.76,5.02-7.36,7.84-11.79,7.22Z"/><path class="q" d="m218.93,239.59c9.46.06,19.02,1.87,28.29-1.6.72-.27,1.59-.65,2.23.05.81.89.22,1.8-.3,2.56-2.34,3.33-5.32,5.94-9.24,7.13-5.31,1.6-10.64,3.2-16.06,4.33-10.64,2.21-20.88,5.36-30.06,11.35-4.27,2.78-9.04,4.03-14.03,3.84-29.79-1.1-59.28-3.49-85.56-19.88-6.93-4.32-12.42-10.29-18.78-15.25-8.23-6.62-16.33-13.39-24.41-20.2-4.07-3.22-8.28-6.29-11.44-10.51,1.76-5.06,6.69-6.15,10.63-8.47,3.37-.7,5.21,1.16,6.7,3.86,1.31,2.37,1.95,5.34,5.3,6.71,1.07-4.66-3.84-7.74-2.65-12.04.24-.42.58-.7,1.03-.87,2.77-.19,3.78,1.98,4.96,3.8,1.73,2.66,2.99,5.59,4.45,8.4,2.24,4.3,5.07,8.01,9.54,10.27,3.1,1.56,4.95,3.86,4.06,7.67-.64,2.71,1.33,4.1,3.23,5.26,2.52,1.54,3.79,3.65,5.17,6.32,3.09,5.96,8.95,9.15,15.12,11.47,1.61.61,2.44-.68,3.34-1.94,3.26-4.53,6.29-4.53,9.85-.2,1.23,1.49,2.02,3.23,2.71,5,1.34,3.43,3.95,4.63,7.23,3.5,4.14-1.41,7.75-.58,11.35,1.48,3.22,1.84,6.56,2.28,9.97.41.42-.23.9-.56,1.32-.5,7.33,1.13,14.54-2.51,21.85-.6,3.32.87,6.25.43,8.97-1.66,2.84-2.19,6.08-3.4,9.63-3.72,5.44-.49,10.54-2.15,15.48-4.38,3.23-1.46,6.58-2.06,10.1-1.57Z"/><path class="x" d="m218.93,239.59c-3.48,1.07-7.05,1.9-10.41,3.26-4.26,1.72-8.34,3.72-13.1,3.83-4.7.12-8.87,1.8-12.46,5.06-2.36,2.14-5.35,1.52-8.16.82-.91-.23-1.94-1.25-2.6-1.02-6.84,2.4-14.3-.15-20.98,2.62-3.29,1.37-6.11,1.07-9.05-.51-3.74-2.01-7.14-3.92-11.92-1.85-3.74,1.63-7.49.21-8.76-4.6-.61-2.29-1.57-4.33-3.58-5.98-2.89-2.37-5.8-1.95-6.28,1.68-.44,3.32-1.78,3.49-4.42,2.66-6.4-2.01-13.09-5.48-15.63-10.79-2.3-4.81-5.75-7.06-9.09-10.13-1.48-1.37-1.88-2.88-.43-4.58,2.05-2.4.47-4.13-1.52-4.81-7.23-2.48-10.19-8.53-13.37-14.67-1.82-3.52-2.78-7.89-7.17-9.55,3.59-4.78,8.79-5.13,14.12-5.12,2.15,2.04,1.21,4.3.55,6.6-1.13,3.93-.37,5.22,3.59,4.88,5.13-.43,8.56,1.8,11.07,5.87,2.04,3.32,4.91,5.22,8.66,6.14,5.27,1.29,9.66,3.92,12.41,8.85.77,1.39,1.8,2.81,3.18,3.49,9.35,4.62,15.81,13.04,24.49,18.53,2.91,1.84,5.98,2.5,9.39,2.83,12.08,1.17,23.49-1.62,35.09-4.45,6.07-1.48,11.86-2.96,17.07-6.4.23-.05.46-.1.69-.15,5.51,4.25,12.25,5.45,18.65,7.51Z"/><path class="b" d="m279.25,140.67c10.51,22.11,11.27,44.21-.19,66.25-1.05,2.01-1.64,3.72-.95,6.21,2.16,7.88-4.37,14.6-12.49,13.11-2.06-.38-3.85-.84-5.84.6-18.32,13.28-37.69,13.11-57.69,4.29-8.09-1.45-12.86-7.61-17.99-13.06-3.01-3.2-5.59-6.87-7.46-10.94-.21-.42-.36-.85-.49-1.3-.61-4.27-2.03-7.69-6.65-9.46-3.35-1.29-5.26-4.47-5.96-8.13-.97-4.22-.59-8.26,2.37-11.57,2.78-3.1,2.86-6.43,1.8-10.11-.89-3.09-1.37-6.19.59-9.11,1.18-2.56,2.77-4.87,4.47-7.1,2.64-2.45,4.15-5.65,5.28-8.91,2.19-6.3,6.09-10.91,11.94-14.11,2.47-1.35,4.79-3.06,7.05-4.8,4.46-2.33,8.66-5.15,13.35-7.05,6.01-2.7,12.4-1.97,18.69-2.02,19.74.29,35.74,8.26,48.24,23.46.93,1.14,1.61,2.33,1.93,3.75Z"/><path class="w" d="m60.93,63.94c.26,1.5.46,2.99-.87,4.16-.43-.65.71-2.25-.92-2.05-1.74.21-3.4.4-3.6-1.74-.14-1.5,1.18-2.7,2.5-3.17,2.5-.88,1.43,2.34,2.89,2.79Z"/><path class="r" d="m276.29,132.67c-1.54-1.44-3.08-2.89-4.62-4.33.4-5.18-2.54-9.05-5.48-12.68-3.02-3.72-4.22-7.26-1.81-11.71,1.18-2.18,1.31-4.49-.59-6.43-.39.09-.57.08-.67.16-1.67,1.45-1.55,5.04-4.81,4.46-2.83-.51-3.84-3.16-4.8-5.48-2.15-5.18-4.82-9.98-8.88-13.93-2-1.94-2.48-4.09-1.52-6.9,1.23-3.6.22-5.01-3.32-4.67-4.73.46-8.02-1.53-10.4-5.24-2.04-3.17-4.83-4.87-8.45-5.57-6.21-1.2-11.41-3.72-13.69-10.29-.62-1.8-2.14-3.25-3.81-4.15-8.3-4.46-14.68-11.44-22.22-16.88-3.67-2.65-7.36-4.24-11.92-3.36-1.08.21-2.27.32-3.31.02-8.93-2.56-17.18.98-25.59,2.87-3.6.81-7.11,1.61-10.74.34-2.8-2.48-5.6-4.97-8.4-7.45,5.07.72,9.3-1.08,13.12-4.25,2.5-2.08,5.23-2.69,8.4-1.42,3.19,1.28,6.48,1.3,9.75.07,2.42-.91,4.81-1.21,7.43-.39,2.08.65,4.52.91,6.35-.79,3.04-2.84,6.13-2.12,9.16-.28,4.37,2.65,8.51,3.97,13.82,1.82,4.17-1.69,6.66,1.77,7.99,5.5.91,2.56,1.66,5.1,3.92,6.92,1.65,1.33,3.43,1.7,5.34,1.1,1.84-.59,1.36-2.33,1.34-3.67-.07-3.83,1.97-3.72,4.65-2.64,5.36,2.17,9.85,5.72,14.46,9.09.61.45,1.51,1.39,1.38,1.81-1.92,6.04,3.61,6.68,6.55,9.15,1.36,1.14,3.1,2.07,1.5,4.17-1.43,1.88-.37,3.08,1.2,3.76,8.67,3.75,12.69,11.02,15.23,19.54.62,2.09,1.65,4.1,4.29,5.38.4-3.85-1.47-6.4-3.7-8.71-1.47-1.52-2.66-2.93-.75-4.81,1.85-1.82,4.09-2.03,5.95-.28,1.47,1.38,2.78,3.15,3.55,5.01,2.25,5.41,5.82,9.82,9.99,13.76,2.5,2.36,4.03,4.95,3.31,8.4-1.05,5.08,2.71,7.47,5.64,10.22,2.32,2.19,3.48-.96,5.19-1.61.18.3.33.55.47.8-4.51,1.84-4.26,7.84-8.65,9.87-1.19.55-1.53,1.92-1.03,3.34.53,1.49.72,3.15,1.45,4.52,3.13,5.88,1.14,10.95-2.26,15.85Z"/><path class="f" d="m43.82,189.24c3.03-5.73,5.45-11.81,9.87-16.74,1.92-2.15.73-3.72-1.22-5.06-6.82-4.68-13.69-9.25-22.09-10.66-1.09-.18-2.49-.04-2.86-1.26-.37-1.2.88-1.97,1.62-2.7,4.37-4.26,9.35-7.56,15.27-9.32,1.28-.38,3.26-.2,3.36-2.02.09-1.74-1.9-2.06-3.09-2.45-11.6-3.73-19.95-12.09-28.65-19.95-.44-.4-.69-.99-1.39-2.03,5.56-.42,10.65-1,15.76-1.13,4.62-.12,8.59-2.1,12.71-3.68,2.75-1.05,2.49-3.45,2.04-5.66-2.24-10.9-6.8-20.43-16.25-27-3.12-2.17-6.31-4.25-9.43-6.42-.74-.51-1.83-.98-1.62-2.08.22-1.1,1.43-1.19,2.3-1.39,10.68-2.49,21.43-2.53,32.01.25,10.3,2.7,10.23,2.96,10.93-7.68.76-11.55-.75-22.49-8.2-31.94-.73-.93-1.68-1.95-1.17-3.69,13.97.06,25.69,5.65,36.01,14.66,3.58,3.13,7.01,6.44,9.92,10.23,2.41,3.15,4.43,2.58,5.96-.67,4.83-10.32,5.9-20.42-2.89-30.38,11.48,1.71,19.29,7.65,25.74,15.7,4.67,5.83,6.63,12.91,8.68,19.93.43,1.47.45,3.69,2.15,3.91,2,.26,2.62-1.96,3.31-3.5,1.88-4.16,3.65-8.38,5.45-12.55,2.32.51,2.45,2.4,3.1,3.98,4.21,10.25,4.79,20.94,4.04,31.81-.41,5.91.02,6.1,5.75,6.25,3.76.09,7.28-.5,10.6-2.06,3.49-1.63,4.01-.14,3.24,2.8-2.4,9.2-4.47,18.5-8.73,27.12-2.58,5.22-2.2,5.78,3.51,6.45,2.03.24,4.1.56,6.11-.27,1.46-.6,2.47-.15,2.8,1.49.76,7.51-2.88,13.35-7.41,18.7-1.57,1.85-3.86,1.13-5.5-.5-1.39-1.38-2.89-2.55-4.81-2.92-4.68-.88-6.02-3.96-5.97-8.3.04-2.92.74-5.64,1.65-8.36,3.39-10.11,1.11-19.19-7.39-24.09-2.77-1.59-4.09-4.34-5.31-7.13-4.85-11.09-12.54-19-24.11-23.46-6.86-2.64-13.09-1.05-19.48.53-18.93,4.67-30.38,17.31-35.34,35.55-2.95,10.84-3,22.2-1.08,33.41.8,4.67,1,9.42,2.23,14.03.66,2.47-.26,4.68-2.47,6.22-5.85,4.07-3.89,15.53,3.22,17.99,1.8.62,3.63,1.07,5.48,1.52,2.12.52,3.78,1.85,3.9,4.24.11,2.28-1.34,3.42-3.43,3.88-6.88.95-13.56,2.58-19.79,5.8-2.09,1.08-4.08,2.51-6.47,2.81-1.42.18-3.58.66-2.57-2.22Z"/><path class="ay" d="m173.56,79.74c-1.47,1.64-3.45,2.17-5.52,2.49-7.75-.37-8.45-1.13-8.34-9,.08-5.88-.22-11.73-1.53-17.49-.39-1.7-.83-3.4-.42-5.17,2.72-3.24,5.95-2.07,8.45-.2,5.64,4.23,11.4,7.93,18.34,9.72,3.28.84,4.88,3.88,6.55,6.6,1.57,2.55,2.97,5.3,7.39,6.32-3.18-5.53-6.15-10.08-10.99-13.19-1.47-.94-3.08-1.66-4.49-2.7-1.58-1.16-3.11-2.43-2.5-4.68.56-2.07,2.28-3.07,4.22-3.41,4.94-.86,9.06.95,12.44,4.46,2.09,2.17,3.87,4.62,5.45,7.21,3.24,5.33,7.07,10.17,11.91,14.14,2.26,1.85,3.3,4.13,3.44,7,.24,4.9,2.04,8.99,5.33,12.86,4.27,5.04,6.52,11.06,4.45,17.92-2.01,1.14-4.29,1.28-6.44,1.2-3.58-.13-6.87.66-10.13,1.92-.74.03-1.47.02-2.13-.38-1.25-1.25-.62-2.68-.24-4,.95-3.28,1.94-6.51-1.71-8.91-.38-.25-.73-.83-.62-1.23,1.95-7.25-6.26-9.22-7.76-14.85-.67-2.53-4.18-2.29-6.74-2.41-3.42-.15-7.03.61-10.03-1.86-.31-.34-.57-.73-.76-1.15-2.33-5.24-3.3-5.39-7.6-1.2Z"/><path class="aq" d="m72.49,181.61c1.24-.57,3.06-.75,2.68-2.72-.42-2.19-2.13-2.82-4.19-3.19-8.21-1.47-11.7-4.97-12.32-12.06-.33-3.72.57-7.08,3.73-9.25,2.42-1.66,2.5-3.52,2.05-6.14-2.45-14.09-4.44-28.16-1.78-42.56,3.98-21.53,17.46-36.53,37.68-41.24,19.45-4.53,36.03,3.96,44.21,22.82,1.69,3.9,3.74,7.05,7.45,9.44,6.84,4.4,9.13,13.25,6.11,22.64-1.24,3.85-1.74,7.7-1.77,11.69-.02,2.25.61,3.56,3.1,3.84,2.75.31,5.43,1.41,6.92,3.76,2.31,3.64,3.73,1.49,5.12-.51,3.48-5.03,5.16-10.84,6.99-16.59.83.11,1.48.48,1.88,1.24.59.55.85,1.25.93,2.03-.46,4.02-1.83,7.84-4.12,11.05-4.92,6.93-7.53,15.26-13.91,21.4-3.09,2.98-2.25,8.07-2.47,12.31-.6,11.61-4.27,21.77-13.59,29.3-5.4,4.36-11.59,7.14-18.27,8.89-18.3,3.46-33.73-1.36-45.8-15.86-1.32-1.59-2.85-2.97-4.26-4.46-.82-.79-1.06-2.05-2.14-2.62-1.08-1.5-4.19-.37-4.23-3.23Z"/><path class="be" d="m138.1,40.66c-.9-1.62-1.79-3.23-2.69-4.85,1.18-4.13,4.72-4.85,8.16-5.32,4.59-.63,9.19-.25,13.63,1.18,4.31,1.39,8.65,1.61,13.13,1.04,8.07-1.02,14.01,4.03,20.48,7.52.82.44,1.36,1.4,1.11,2.44-.3,1.27-1.44,1.91-2.51,1.79-7.67-.89-15.49,1.73-23.08-1.07-3.14-1.15-6.42-1.74-9.79-1.41-3.26.32-4.22-2.59-6.09-4.28-1.29-1.16-2.47-3.78-4.57-.83-.51,2.82.17,5.82-1.23,8.51-2.66-.91-4.15-3.44-6.55-4.71Z"/><path class="au" d="m28.2,149.98c-1.98-.3-3.51-.88-3.08-3.46.39-2.32.58-4.69.74-7.04.22-3.21,1.71-4.04,4.54-2.6.55.33,1.15.48,1.76.64,5.59,1.5,6.26,3.91,2.22,7.95-1.97,1.63-3.63,3.69-6.19,4.51Z"/><path class="af" d="m78.04,183.84c-9.68-1.06-18.22,2.76-26.81,6.34-1.88.79-3.67,1.82-5.5,2.74-.67-1.21-4.39-.83-1.92-3.68.41,3.5,2.43,1.09,3.25.62,6.37-3.64,13.17-6.06,20.3-7.65,1.7-.38,3.35-.9,5.12-.6,1.42,1.82,4.43-.31,5.55,2.23Z"/><path class="ae" d="m38.12,167.33c5.21-1.35,8.51.39,10.7,5.66.1,1.13-.26,2.12-.96,2.99-1.9,1.02-1.89,4.8-5.29,3.65-.82-4.34-4.77-7.55-4.45-12.3Z"/><path class="ap" d="m104.81,36.02c.37.29.74.58,1.11.87-.92,3.05,1.53,6.46-1.02,9.33-4.52-.04-6-4-8.53-6.6,1.63-3.8,4.32-4.95,8.44-3.6Z"/><path class="al" d="m138.1,40.66c3.52-.29,5.52,1.54,6.55,4.71.1,1.33-.4,2.43-1.31,3.36-4.07-1.18-4-5.05-5.24-8.07Z"/><path class="ak" d="m104.81,36.02c-3.07.6-6.03,1.46-8.44,3.6-1.85-1.58-3.7-3.17-5.54-4.76,4.74-.53,7.17-4.8,11.01-6.79.99,2.65,1.98,5.3,2.97,7.94Z"/><path class="ba" d="m158.77,50.17c-1.81-2.68-3.08-5.58-3.65-8.77,3.09-3.5,6.7-1.01,9.66-.24,5.11,1.34,9.94,2.9,15.3,1.38,3.61-1.03,7.31,1.07,11.16.01-7.43-2.99-13.09-10.26-22.55-7.95-3.63.89-7.47.03-11.23-1.05-7.56-2.16-15.25-3.66-22.07,2.26-1.92-2.3-3.84-4.6-5.76-6.91,7.37-1.53,14.99-2.32,22.04-4.78,7.61-2.66,14.87.32,22.28.06,6.95-.24,12.36,6.3,17.46,11.12,1.71,1.62,3.32,3.21,5.34,4.44,5.64,3.44,11.63,6.28,13.83,13.58,1.16,3.84,5.7,4.37,9.16,5.1,5.04,1.06,9.09,2.8,11.71,7.72,1.58,2.98,4.55,4.87,8.47,3.27,1.66-.68,3.61-.92,4.57,1.09.85,1.79,2.12,3.76.45,5.76-1.23,1.47-2.09,2.85-.25,4.44,5.32,4.6,8.34,10.66,10.97,17.02.6,1.45,1.24,3.77,3.36,3.43,1.75-.28,1.62-2.49,2.11-3.93.4-1.15.2-2.75,1.89-2.9,1.58-.13,1.91,1.46,2.62,2.44,1.84,2.56,2.34,5.7.33,7.93-3.22,3.57-1.61,6.29.5,9.24,1.74,2.44,3.71,4.73,5.26,7.28,1.37,2.25,1.6,4.76-.08,7.11-.36-.32-.73-.65-1.09-.97-2.04-4.49-4.44-8.62-8.07-12.19-2.76-2.71-4.43-6.48-6.94-9.53-1.37-1.67-2.58-3.46-5.1-5.09,1.93,5.38,4.26,9.62,6.93,13.74.77,1.19,2.96,3.33-.87,3.71-1.07-.53-2.14-1.07-3.21-1.6-3.42-2.4-5.4-6.5-9.74-7.93-1.95-.64-2.43-2.75-2.18-4.82.23-1.89.54-3.77,1.07-5.59.78-2.69.29-4.91-1.77-6.9-3.99-3.84-7.78-7.87-11.34-12.13-2.95-3.53-7.47-4.53-11.61-6.32,4.87,3.02,7.07,8.51,11.53,11.86,2.89,2.16,4.77,5.05,6.08,8.33.99,2.49,1.78,4.96-2.03,5.92-2.3.58-1.26,2.08-.71,3.35,1.23,2.87,3.73,4.66,5.83,6.79.89.91,1.69,2.03,1.17,3.4-.61,1.62-2.14.89-3.32,1.07-2.81-.89-6.15,1.81-8.61-1.31-1.23-7.11-1.75-14.27-8.23-19.48-2.57-2.07-3.09-6.43-2.92-10.13.14-2.96-.83-5.04-3.3-6.81-7.55-5.39-11.04-14.13-16.86-20.97-2.81-3.31-6.37-4.49-10.46-4.52-1.76-.02-3.7.39-4.4,2.23-.9,2.36,1.48,3.15,2.8,3.7,7.38,3.05,11.49,9.2,15.35,15.62.61,1.01,2.1,2.04.96,3.29-1.06,1.17-2.34-.2-3.48-.47-3.53-.85-5.57-3.42-7.1-6.5-1.96-3.95-4.38-7.26-9.31-7.75-5.47-.55-9.46-4.06-13.36-7.43-2.6-2.23-5.19-3.53-8.61-2.73Z"/><path class="n" d="m50.89,193.81c3.03-.94,6.06-1.87,9.09-2.81.65,3.65,2.88,6.65,4.14,10.05.55,1.5,1.44,3.13-.44,4.16-1.58.87-3.27.23-4.21-1.17-1.58-2.35-2.96-4.85-4.25-7.37-.94-1.84-2.04-3.18-4.33-2.87Z"/><path class="aj" d="m74.14,186.65c1.51-.62,2.87-.22,4.18.58,4.87,2.58,6.93,7.97,11.36,11.12,6.09,4.33,12.41,7.95,19.69,9.77.44.15.88.3,1.32.45,3.23.7,6.78-.66,9.76,1.57,2.94,3.15,5.86,6.34,10.73,6.13.94-.04,2.09.11,2.56-.83.55-1.11-.61-1.63-1.28-2.22-1.29-1.12-3.03-2.01-2.08-4.23,1.65-1.57,3.86-1.89,5.88-2.64.73-.16,1.47-.2,2.22-.12,4.69.91,8.5,3.41,11.82,6.7,3.65,3.61,7.62,4.04,12.16,1.83,7.1-3.45,13.49-1.6,19.41,2.96,6.05,5.09,11.53,10.85,18.25,15.13-4.44,3.25-8.19,7.84-14.87,6.21-1.7-.41-3.84,1.22-5.82,1.73-6.12,1.58-12.26,4.33-18.4,4.34-12.97.02-26.43-.01-34.79-13.06-1.94-3.03-5.68-3.89-8.63-5.66-3.87-2.32-7.39-4.9-9.62-8.95-2.28-4.13-6.25-5.8-10.51-6.64-4.2-.83-7.2-2.84-9.33-6.57-2.48-4.33-5.72-7.28-11.28-4.87-1.8.78-3-.47-3.97-1.82-1.09-1.53-1.67-3.41-.3-4.82,1.81-1.86,1.61-3.93,1.52-6.11Z"/><path class="bb" d="m226.2,134.49c24.21-1.56,50.62,17.01,50.79,47.02.15,26.84-19.75,51.67-43.03,53.32-32.58,2.31-57.71-21.71-57.83-46.9-.13-27.33,19.92-54.19,50.07-53.44Z"/><path class="bg" d="m279.32,173.96c-3-23.56-25.52-40.15-47.54-42.41-22.96-2.36-37.3,9.62-50.62,24.88-3.78,4.33-5.1,10.29-7.35,16.46-2.1-6.81-3.66-12.59,1.85-17.82,2.29-2.18,4.28-4.93,4.94-8.03,2.25-10.46,10.37-15.46,18.44-20.58,1.6-1.02,3.36-1.82,4.86-2.97,9.41-7.21,20.23-5.93,31.02-5.48,17.14.72,29.02,10.69,39.85,22.39,6.08,6.58,7.62,15.36,9.04,23.68,1.12,6.59,1.01,13.61-.76,20.33-2.94,1.04-3.06-.96-3.25-2.97-.23-2.49.56-5.05-.48-7.49Z"/><path class="l" d="m181.88,217.74c-2.42-.72-4.84-1.43-7.26-2.16-4.36-1.31-8.38-1.63-12.63,1.12-3.99,2.59-8.28,1.57-11.75-1.74-3.47-3.31-7.12-6.28-11.83-7.65-.72-2.42,1.31-2.99,2.73-3.7,14.33-7.26,19.67-19.71,20.29-34.91.14-3.47-.11-7,1.85-10.11,1.85-2.93,3.64-3.1,5.98-.68-2.42,3.94-.03,7.66.67,11.39.55,2.9.45,5.2-2.03,7.15-3.89,3.08-3.49,7.44-3.25,11.72-.54,4.05,1.78,7.21,4.81,8.49,4.67,1.98,6.53,5.49,7.95,9.72,0,0-.04-.14-.04-.14-.47,4.61,3.89,7.32,4.52,11.49Z"/><path class="h" d="m173.76,151.15c-2.68-3.01-.27-5.38,1.18-7.65,2.87-4.52,6.44-8.64,7.23-14.2,1.71-4.35,3.53-8.68,1.84-13.5-.87.33-1.14-.07-1.06-.88-1.54-1.9-3.08.23-4.62,0-.45-2.55,1.42-2.89,3.14-3.02,2.47-.19,4.23,1.09,5.22,3.33.87,1.96.62,4.01.35,6.06-.22,1.69-.95,3.36-.22,5.32,3.91-.57,6.26-5.57,10.88-3.97.22.47.14.88-.2,1.26-.88.65-1.69,1.47-2.66,1.92-8.91,4.05-14.23,11.15-17.26,20.19-.73,2.18-1.83,3.96-3.81,5.15Z"/><path class="ao" d="m173.97,186.46c0,.95.1,1.91-.02,2.83-.21,1.53,1.31,3.88-1.3,4.35-2.24.41-3.87-1.17-4.72-3.19-1.66-3.93-1.4-7.73,1.43-11.06.77-.91,1.88-1.88,3.27-1.43,1.36.44.98,1.81,1.08,2.85.18,1.88.26,3.77.38,5.66-.04,0-.07,0-.11,0Z"/><path class="o" d="m267.68,223.74c-2.79.17-3.64-.77-1.89-3.25,2.01-2.85,3.98-5.72,6-8.56,1.55-2.18,2.55-1.05,3.38.64,2.59,5.27-1.42,11.25-7.49,11.17Z"/><path class="as" d="m279.32,173.96c1.68,1.9.81,4.21.94,6.33.13,2,.21,3.85,2.78,4.13-.18,7.68-2.53,14.68-7.15,21.09,4.03-10.26,3.56-20.92,3.42-31.55Z"/><path class="bh" d="m210.75,114.98c.04.78-1.97.62-.87,1.89-4.13,2.34-8.26,4.68-12.39,7.03-.05-.47-.1-.93-.15-1.4,1.06-2.88,3.97-3.82,5.98-5.7,1.62-1.06,3.01-2.74,5.31-1.96.71.05,1.41.1,2.12.15Z"/><path class="e" d="m237.49,113.81s.04-.42.04-.42c3.45-2.34,0-3.65-1.07-4.39-2.77-1.89-4.61-4.44-5.85-7.33-.87-2.02-2.77-5.53,2.55-4.28,1.8.42,2.43-.29,1.68-2.03-.81-1.88-1.24-4.12-2.54-5.57-4.29-4.76-8.89-9.24-13.42-13.78-.65-.65-1.66-.93-2.36-1.54-1.16-1.01-2.88-2.14-1.52-3.87,1.07-1.36,2.53-.26,3.88.21,11.3,3.94,16.79,14.55,25.17,21.84,1.11.97.74,2.27.41,3.55-.66,2.61-1.15,5.26-1.76,7.88-.43,1.87.23,3.5,2.03,3.64,5.49.44,6.35,5.2,8.59,8.68-5.23-1.19-10.45-2.45-15.84-2.6Z"/><path class="ar" d="m256.54,118.02c2.31-.93.66-2.04-.04-2.74-3.88-3.9-4.51-9.65-7.93-13.8-.72-.87-.34-1.75.44-2.49.83-.77,1.64-.85,2.48-.04,1.13,1.1,2.43,2.07,3.39,3.3,4.52,5.84,9.03,11.69,13.38,17.65,1.57,2.15,2.91,4.56,2.32,7.47-4.36-3.6-8.98-6.81-14.04-9.36Z"/><path class="aa" d="m43.12,179.76c-1.4,4.68-2.8,9.35-4.19,14.03-1.25.83-.34,2.39-1.28,3.53-3.26-2.13-5.15-5.6-7.95-8.15,0,0-.05-.08-.05-.08-3.34-2.49-3.42-6.72-4.33-10.06-1.43-5.23-2.27-10.87-1.36-16.47.6-.36,1.2-.71,1.8-1.07,4.68.77,9.99.21,12.37,5.85,2.12,3.96,5.73,7.32,5,12.42Z"/><path class="z" d="m33.43,93.01c5.34.59,4.34,5.6,5.79,8.74,1.01,2.2,2.93,5.07.58,7.45-2.19,2.21-5.87.92-8.4,2.73-3.05.21-4.45-.54-3.08-4.02,1.92-4.88,3.43-9.92,5.11-14.89Z"/><path class="ai" d="m208.63,114.83c-1.5.95-3.01,1.91-4.51,2.86-2.76.5-3.2-1.64-3.29-3.39-.23-4.45-3.04-5.85-6.79-6.4-.93-.14-1.87-.29-2.77-.59-2.2-.73-4.06-1.82-4.35-4.41-.34-2.98,2.31-2.8,4.63-3.9-4.8-2.18-8.1-5.37-10.36-9.58-.23-2.73.7-5.28,1.17-7.91,3.65,1.56,7.51.93,11.29.98,3.86.05,6.73,1.19,7.93,5.31.87,2.96,2.73,5.22,5.62,6.75,1.73.91,5.45,2.1.84,4.56-1.16.62-1.49,2.07-.12,2.64,7.06,2.92,2.45,7.48,1.71,11.47-.11.58-.64,1.08-.98,1.62Z"/><path class="bi" d="m138.18,80.8c1.28,2.36,2.5,4.76,3.85,7.07,1.6,2.74.92,3.72-2.27,4.16-10.62,1.48-18.11,8.48-20.74,18.93-2.79,11.09,5.77,22.31,17.2,23.19,6.41.49,11.76-1.59,16.94-5.28.08,4.6-3.79,8.23-9.3,9-1.88.26-3.8.17-5.71.25-1.05.05-2.63-.49-2.82.93-.21,1.58,1.44,1.95,2.68,2.11,4.37.56,8.74.16,12.27-2.53,3.67-2.8,4.46-1.71,4.94,2.3,1.38,11.5,3.63,23.07,1.06,34.52-2.35,10.48-7.79,18.9-17.89,24.45-26.86,14.75-51.53-3.02-61.53-23.89-6.1-12.72-10.65-25.86-12.17-39.8-1.81-16.62-2.38-33.31,6.77-48.49,6.29-10.44,15.76-16.61,27.14-20.41,14.88-4.97,27.02-.8,37.23,10.49.2,2.21.13,2.39-1.86,1.6-3.09-1.23-6.13-2.22-9.56-2.25-11.41-.11-22.08,2.86-32.47,7.18-5.62,2.61-11.28,5.18-14.85,10.66-.75,1.31-1.26,2.66.07,3.89,1.19,1.1,2.38.21,3.55-.18,7.11-2.36,13.05-7.13,20.1-9.66,3.62-1.3,7.21-2.38,11.09-2.26,6.5.2,12.91-1.49,19.43-1.01,2.28.17,3.95-.82,4.68-3.19.29-.95.5-2.33,2.15-1.8Z"/><path class="c" d="m156.47,112.88c.18,11.26-6.45,18.72-16.77,18.84-11.08.13-18.49-6.13-18.8-15.9-.33-10.41,9.3-21.13,19.15-21.32,10.03-.2,16.23,6.74,16.42,18.38Z"/><path class="bj" d="m90.67,83.54c10.87-5.25,22.36-7.88,34.42-7.86,3.69,0,7.24.81,10.32,3.06.1.07.29.01.45.01,0-.31,0-.63,0-.94,1.55.4,1.91,1.71,2.33,2.99-.91,5.87-4.97,6.79-9.99,6.62-3.47-.12-6.97.49-10.44.36-10.57-.39-19.78,3.42-28.63,8.68-2.43,1.44-5.15,2.4-7.74,3.57-2.05.93-4.18,1.98-6-.32-1.72-2.17-.73-4.09.8-5.89,1.26-.4,1.67.59,2.22,1.34.76,1.55,1.99,1.26,3.25.82,1.51-.53,2.96-1.23,4.22-2.17,11.15-8.34,24.05-10.09,37.44-10.07,2.38,0,4.76.15,7.12-.3.49-.09.89-.31,1.34-1.06-1.31-2.11-3.6-1.91-5.68-2.07-9.18-.72-18.02.9-26.64,3.99-2.24.8-4.44,1.78-6.93,1.31-.97-.36-2.02-.65-1.85-2.04Z"/><path class="j" d="m60.92,161.83c.09-.35.2-1.65.73-2.76.67-1.41,1.61-3.09,3.34-3.01,1.75.07,1.62,2.09,2.11,3.32,1.41,3.52,2.71,7.1,4.01,10.67.31.86.86,1.88.12,2.66-.87.93-2.08.52-3.13.22-4.07-1.16-7.21-5.63-7.18-11.09Z"/><path class="an" d="m166.2,146.21c-.19.63-.46,2.03-1.02,3.3-.87,1.98-2.56,3.75-4.56,3.64-2.21-.12-1.47-2.75-1.83-4.28-.71-3.06-1.1-6.19-1.64-9.29-.52-2.94,1.06-3.46,3.26-2.51,3.58,1.55,5.79,4.24,5.79,9.15Z"/><path class="am" d="m181.18,89.43c1.44.28,3.02.81,3.54,2.1,1.23,3.08,3.41,4.49,6.53,5.14,1.98.41,2.72,2.17,2.26,4.08-.6,2.46-2.19.82-3.37.56-.78-.17-1.67-.56-2.02.37-.24.65-.18,1.65.17,2.24,1.17,1.98,3.22,2.2,5.32,2.45,7.1.85,7.66,1.41,8.61,8.33.19,1.37.59,2.42,1.9,2.99-2.26,1.6-4.52,3.2-6.78,4.8-3.28,1.91-6.77,3.48-9.54,6.17-.67.65-1.39,1.46-2.47.92-1.32-.66-.9-1.75-.7-2.89.51-2.96.95-5.93,1.28-8.91.23-2.12-.7-3.85-2.72-4.53-1.88-.64-3.82-.56-4.88,1.65-1.4.65-2.89,1.78-4.3.4-1.07-1.04-.14-2.41.21-3.54,2.28-7.46,4.62-14.89,6.95-22.33Z"/><path class="i" d="m125.07,225.56c2.65-1.35,3.89-1.06,5.11-.72,3.37.94,6.51,1.3,10.1-.02,3.59-1.33,7.6-.39,11.01,1.53,4.15,2.33,8.42,2.15,12.9,1.51,5.01-.72,10.08-1.02,15.07.35,1.78.49,3.35,1.33,3.57,3.33.21,1.86-1.38,2.75-2.63,3.67-3.38,2.51-7.55,2.27-11.01,1.43-8.36-2.04-16.77-2.93-25.31-3.11-7.03-.15-11.55-5.7-18.81-7.97Z"/><path class="m" d="m122.09,210.28c2.65.59,5-.89,7.53-1.13.55-.39.88-.25.99.41.66,2.14,2.87,2.23,4.38,3.24,1.26.84,1.44,1.94,1.3,3.26-.18,1.74-1.48,1.73-2.76,1.83-5.8.46-10.5-1.3-13.48-6.6.37-.95,1.48-.42,2.04-1.01Z"/><path class="bc" d="m122.09,210.28c-.68.34-1.36.67-2.04,1.01-3.24-1.85-7.21.05-10.41-2.02,4.18-.08,8.39-.49,12.44,1.01Z"/><path class="bc" d="m130.62,209.56c-.33-.14-.66-.27-.99-.41,1.73-2.66,4.41-1.68,6.81-1.78-1.94.73-3.88,1.46-5.82,2.18Z"/><path class="g" d="m212.3,195.92c7.42.26,15.34,3.24,21.34,10.41,2.28,2.72,4.06,5.75,4.39,9.31.29,3.13-.47,6.21-3.5,7.75-2.71,1.38-4.76-.48-6.66-2.29-1.83-1.74-3.82-3.32-5.65-5.06-3.22-3.06-6.95-4.12-11.33-3.44-3.9.61-7.84,1.25-11.78,1.32-5,.09-7.3-3.51-5.76-8.33,2.06-6.44,8.2-9.9,18.96-9.67Z"/><path class="bf" d="m254.09,197.07c-11.81-.15-20.33-8.91-20.19-20.74.12-9.51,9.65-18.12,19.93-17.99,9.82.12,19.62,10.3,19.65,20.4.02,9.56-9.4,18.47-19.39,18.34Z"/><path class="ad" d="m214.46,182.46c-10.64.91-18.18-2.98-21.74-11.49-2.86-6.84-3.3-13.62,2.18-19.51,5.66-6.09,15-8.25,22.26-5.42,12.38,4.84,17.15,18.42,9.82,27.98-.89.32-1.33-.2-1.7-.87-.68-2.13.51-4.01.81-6.01,1.23-7.94-2.92-14.76-10.62-17.38-7.79-2.65-15.2.25-18.89,7.37-3.06,5.91-1.08,14.07,4.41,18.32,2.69,2.08,5.82,3.13,9.02,4.05,1.45,1.04,4.16.21,4.46,2.97Z"/><path class="ah" d="m220.27,189.64c2.58-1.14,3.78.95,5.47,1.49,1.3.41,2.68,1.62,3.87.28,1.25-1.4-.23-2.59-.87-3.77-.43-.8-1.31-1.43-.35-3.13,2.59,1.33,4.14,3.25,4.33,6.22.13,2.07-1.2,3.32-3.02,3.65-4.22.77-6.94-1.54-9.44-4.75Z"/><path class="v" d="m268.1,160.44c-4.48-3.32-9.49-5.39-14.47-7.54-.68-.3-1.5-.77-1.34-1.71.18-1.03,1.16-1.16,1.85-.88,5.41,2.23,11.28,3.84,13.96,10.13Z"/><path class="ac" d="m207.11,141.12c2.7-3.12,5.74-1.9,8.47-2.1,3.22-.24,6.24.5,9.21,1.6.89.33,1.96.68,1.66,1.86-.31,1.21-1.46.95-2.35.76-3.07-.66-6.18-1.19-9.17-2.12-2.44-.75-4.83.45-7.81,0Z"/><path class="ad" d="m214.46,182.46c-1.25-1.51-3.51-.15-4.75-1.68.59-1.11,1.67-1.41,2.76-1.59,4.01-.65,7.5-2.3,10.41-5.16.79-.77,1.69-1.44,2.93-1.23.39.4.78.81,1.17,1.21-2.58,5.17-6.83,7.88-12.51,8.45Z"/><path class="k" d="m99.4,101.77c9.85.21,18.38,10.55,18.03,21.89-.35,11.48-10.78,20.77-23.13,20.61-11.68-.15-19.01-7.85-18.91-19.85.11-12.48,11.17-22.92,24.01-22.65Z"/><path class="p" d="m92.64,172.47c16.27-9.01,40.22-11.62,50.95-1.35-5.3-1.5-10.68-2.77-16-4.12-5.73-1.45-10.97.72-16.43,1.14-.98.07-2.12.74-2.07,1.68.23,4.13-3.62,5.73-5.18,8.72-1.69,3.23-3.31,2.27-4.69-.29-1.29-2.38-1.43-5.64-6.58-5.79Z"/><path class="y" d="m120.37,141.44c1.75,2.83,3.03,5.08,4.49,7.21,1.45,2.13,2.93,5.59,5.85,4.2,2.71-1.29,1.58-4.79.91-7.38-.59-2.29-1.46-4.51-2.17-6.77-.46-1.44-1.65-2.8-.61-4.46,4.28,3.2,7.4,14.41,5.22,18.83-1.18,2.4-2.91,3.74-5.73,2.61-3.41-1.36-8.17-9.31-7.95-14.26Z"/><path class="d" d="m80.34,145.14c8.02,4.48,16.01,2.72,24.77-.27-6.41,7.3-19.74,7.37-24.77.27Z"/><path class="t" d="m77.17,95.55c-.34-.58-.67-1.17-1.01-1.75,3.76-4.95,8.89-7.95,14.51-10.26.68.33,1.36.65,2.04.98-.14,1.76-1.68,2.15-2.85,2.87-3.39,2.05-6.73,4.15-9.58,6.97-.78.78-1.53,2.24-3.11,1.19Z"/><path class="u" d="m90.57,167.14c-1.38,3.83-.81,7.16,1.46,10.27.37.51.3,1.22-.29,1.68-.62.48-1.09.1-1.61-.3-3.19-2.47-3.17-9.04.44-11.65Z"/><path class="s" d="m148.76,166.6c1.81,6.25-.09,9.72-6.8,11.3,3.88-3.62,5.61-7.26,6.8-11.3Z"/><path class="az" d="m138.81,114.63c-1.02-.27-1.58-.9-1.56-1.99.03-1.13.63-1.73,1.74-1.65,1.15.09,1.53.92,1.46,1.95-.07.98-.31,1.88-1.63,1.69Z"/><path class="bd" d="m77.17,95.55c4.14-5.14,9.54-8.51,15.53-11.03,2.94-.04,5.5-1.42,8.16-2.37,8.02-2.86,16.26-4.07,24.74-3.66,1.88.09,3.79.32,5.62.77,1.96.48,3.82,1.96,3.67,3.85-.17,2.21-2.72,1.68-4.29,1.8-5.52.41-11.06.82-16.6.85-9.36.06-17.64,3.18-25.41,8.13-2.65,1.69-5.47,3.24-8.4,4.35-2.55.97-3.17.2-3.01-2.69Z"/><path class="ab" d="m222.2,200.64c1.56.52,3.47,1.02,3.41,3.09-.04,1.57-1.7,2.24-3.07,2.31-1.8.1-2.19-1.43-2.33-2.87-.13-1.36.21-2.48,1.99-2.53Z"/><path class="ab" d="m215.22,198.44c1.22.35,3.12.05,3.16,1.98.03,1.52-1.23,2.64-2.7,2.85-1.66.24-2.67-.88-2.82-2.49-.14-1.54.76-2.3,2.36-2.34Z"/><path class="ab" d="m208.37,201.81c-1.11-.25-2.17-.75-2.2-2-.03-1.46,1.15-1.69,2.31-1.57.91.09,1.98.25,2,1.49.02,1.33-.93,1.85-2.1,2.08Z"/><path class="ab" d="m229,209.34c-1.27-.2-1.8-1.23-1.91-2.33-.11-1.09.63-1.8,1.78-1.63,1.21.18,2.07.93,2.02,2.23-.04,1.04-.63,1.76-1.89,1.74Z"/><path class="ax" d="m237.04,177.86c-.15-9.37,5.92-16.2,14.6-16.43,11.42-.31,19.16,6.51,19.24,16.94.07,9.48-7.57,16.34-18.25,16.39-8.38.04-15.44-7.61-15.58-16.9Z"/><path class="c" d="m225.81,172.8c-3.97,5.48-9.32,8.16-16.1,7.97-7.07-1.44-12.77-4.68-15.3-11.92-2.34-6.71-.66-12.58,4.3-17.37,4.93-4.77,11.09-5.35,17.29-3.3,6.47,2.14,10.63,6.71,11.73,13.65.62,3.86.1,7.55-1.92,10.96Z"/><path class="c" d="m97.84,104.58c9.11-1.03,17.37,8.03,17.19,19.24-.17,10.27-10.08,18.48-21.71,18.12-8.7-.27-16.01-7.85-15.82-16.39.25-11.41,9.77-21.22,20.35-20.96Z"/><path class="ag" d="m101.09,176.08c-1.03-2.29-2.21-4.17.39-5.22,1.31-.54,3.09-2.59,4.32-.22,1.14,2.19-.95,2.27-2.4,2.84-.83.33-1.35,1.47-2.31,2.6Z"/><path class="az" d="m256.66,180.14c-.26.98-.8,1.74-1.9,1.77-1.4.03-1.95-.97-1.94-2.14,0-1.29,1.12-1.29,2.05-1.3,1.09-.01,1.78.48,1.78,1.67Z"/><path class="az" d="m209.19,167.14c-1.32-.32-1.74-1.3-1.6-2.47.14-1.19.84-2.13,2.16-1.91,1.19.2,1.95,1.08,1.71,2.36-.22,1.18-1.06,1.87-2.28,2.02Z"/><path class="az" d="m95.64,120.71c1.03.33,1.45,1.11,1.36,2.09-.08.94-.48,1.84-1.6,1.89-1.11.05-1.68-.72-1.65-1.74.04-1.16.62-2.02,1.88-2.24Z"/></svg>